<svg width="64" height="64" viewBox="0 0 64 64" fill="none" xmlns="http://www.w3.org/2000/svg">
  <defs>
    <linearGradient id="geoairFavGradient" x1="8" y1="8" x2="56" y2="56" gradientUnits="userSpaceOnUse">
      <stop stop-color="#2563EB"/>
      <stop offset="1" stop-color="#0F766E"/>
    </linearGradient>
  </defs>
  <rect x="6" y="6" width="52" height="52" rx="16" fill="url(#geoairFavGradient)"/>
  <path d="M20 20.5C20 19.1193 21.1193 18 22.5 18H41.5C42.8807 18 44 19.1193 44 20.5V27.5C44 28.124 43.7667 28.7255 43.3454 29.1874L37.0398 36.0992C36.5668 36.6175 35.8971 36.9135 35.1956 36.9135H28.8044C28.1029 36.9135 27.4332 36.6175 26.9602 36.0992L20.6546 29.1874C20.2333 28.7255 20 28.124 20 27.5V20.5Z" fill="white"/>
  <path d="M25.5 24.5H38.5" stroke="#2563EB" stroke-width="2.6" stroke-linecap="round"/>
  <path d="M25.5 29.5H34.5" stroke="#0F766E" stroke-width="2.6" stroke-linecap="round"/>
  <circle cx="32" cy="44" r="4" fill="white"/>
</svg>
